<svg xmlns="http://www.w3.org/2000/svg" width="181" height="86" viewBox="0 0 181 86" fill="none"><path d="M80.6352 40.35C79.6878 39.69 78.5701 39.3174 77.4151 39.2961H65.1096L63.2627 40.8822V46.0024H76.7817V67.074H81.7423L83.3815 65.3335V45.3744C83.307 44.3897 83.0569 43.421 82.6417 42.5215C82.1787 41.6221 81.4867 40.8769 80.6352 40.35Z" fill="black"></path><path d="M52.437 39.344V53.0812H57.2379L59.0315 51.2343V41.1962L57.3443 39.3493L52.437 39.344Z" fill="black"></path><path d="M45.4644 40.4032C44.3042 39.658 42.9363 39.2854 41.5578 39.344H27.299L25.6597 41.3506V67.0686H30.6202L32.3074 65.1685V45.997H41.6004V60.3623H37.3158L35.3093 61.7887V67.0686H46.5556L48.1895 65.4346V45.4169C48.1682 43.3997 47.1463 41.5262 45.4644 40.4032Z" fill="black"></path><path d="M14.7856 39.344V67.0686H19.7515L21.4387 65.1152V41.2973L19.8047 39.344H14.7856Z" fill="black"></path><path d="M7.86658 40.5045C6.93516 39.7647 5.78017 39.3602 4.59327 39.3442H1.84694L0 41.0368V45.8962H3.90672V77.6339H8.8672L10.5065 75.6805L10.5598 45.5821C10.4853 43.5649 9.48993 41.6968 7.86658 40.5045Z" fill="black"></path><path d="M124.623 28.028C108.613 28.028 95.6372 41.0041 95.6372 57.014C95.6372 73.0239 108.613 86 124.623 86C140.633 86 153.609 73.0239 153.609 57.014C153.615 41.0041 140.633 28.028 124.623 28.028ZM124.623 71.5549C116.592 71.5549 110.082 65.0455 110.082 57.014C110.082 48.9824 116.592 42.4731 124.623 42.4731C132.655 42.4731 139.164 48.9824 139.164 57.014C139.164 65.0455 132.655 71.5549 124.623 71.5549Z" fill="#A8D04A"></path><path d="M100.576 54.6508C106.335 54.6508 111.008 49.983 111.008 44.2188C111.008 40.525 109.055 37.108 105.877 35.2345C105.361 35.6869 104.856 36.15 104.371 36.6396C99.7832 41.2169 96.8665 47.21 96.1001 53.6448C97.4999 54.3101 99.0275 54.6561 100.576 54.6508Z" fill="#68BD46"></path><path d="M122.601 83.392C122.601 81.907 122.255 80.438 121.59 79.1074C118.976 78.7881 116.826 76.8879 116.187 74.3332C112.009 72.8642 107.368 74.4343 104.946 78.1387C109.673 82.6202 115.772 85.3666 122.255 85.9414C122.489 85.1111 122.601 84.2542 122.601 83.392Z" fill="#008A4D"></path><path d="M121.59 79.1021C121.845 79.134 122.101 79.15 122.356 79.15C125.864 79.15 128.706 76.3078 128.706 72.8003C128.706 72.6726 128.706 72.5502 128.695 72.4277C128.695 72.3905 128.695 72.3532 128.684 72.3106C128.684 72.2202 128.668 72.135 128.658 72.0498C128.658 72.0073 128.647 71.9647 128.642 71.9274C128.631 71.8369 128.615 71.7518 128.599 71.6666C128.599 71.6347 128.589 71.5974 128.578 71.5655C128.557 71.4484 128.53 71.326 128.498 71.2089H128.487C128.349 71.2408 128.216 71.2781 128.078 71.31L127.982 71.3313C127.875 71.3526 127.769 71.3792 127.663 71.3952L127.535 71.4218L127.237 71.475L127.114 71.4963C126.987 71.5176 126.859 71.5336 126.731 71.5495H126.694C126.55 71.5655 126.412 71.5815 126.268 71.5974L126.151 71.6081L125.837 71.6347L125.699 71.6453C125.597 71.6453 125.491 71.656 125.39 71.6613H125.262C125.113 71.6613 124.964 71.6613 124.826 71.6613C124.687 71.6613 124.506 71.6613 124.341 71.6507H124.219C124.081 71.6507 123.942 71.64 123.809 71.6294H123.735C123.575 71.6187 123.421 71.6028 123.266 71.5868L123.154 71.5762C123.027 71.5602 122.899 71.5442 122.771 71.5282L122.67 71.5123C122.516 71.491 122.367 71.4644 122.212 71.4378L122.122 71.4218C121.994 71.4005 121.872 71.3739 121.744 71.3473L121.627 71.3207C121.478 71.2887 121.334 71.2515 121.185 71.2142L121.148 71.2036C121.01 71.1663 120.876 71.1291 120.743 71.0918L120.626 71.0545C120.493 71.0173 120.365 70.9747 120.238 70.9321L120.19 70.9162C120.041 70.8683 119.902 70.815 119.764 70.7671L119.652 70.7246C119.535 70.682 119.423 70.6341 119.312 70.5862L119.221 70.5489C119.083 70.4904 118.95 70.4318 118.811 70.368L118.715 70.3254C118.604 70.2722 118.497 70.2242 118.386 70.1657L118.284 70.1125L118.135 70.038C118.05 69.9954 117.965 69.9475 117.88 69.9049C117.859 69.8943 117.843 69.8836 117.821 69.873C117.71 69.8091 117.598 69.7452 117.481 69.6814L117.38 69.6175C117.252 69.543 117.129 69.4685 117.007 69.3833C116.996 69.3993 116.986 69.4099 116.98 69.4259C116.917 69.527 116.853 69.6335 116.794 69.7452C116.789 69.7506 116.783 69.7612 116.783 69.7665C116.72 69.8836 116.661 70.0007 116.608 70.1231C116.592 70.1551 116.581 70.1817 116.565 70.2136C116.517 70.3147 116.48 70.4159 116.438 70.5223C116.427 70.5436 116.416 70.5702 116.411 70.5915C116.363 70.7139 116.32 70.8417 116.283 70.9694C116.273 70.996 116.267 71.0279 116.257 71.0545C116.225 71.161 116.198 71.2674 116.171 71.3739C116.166 71.4058 116.155 71.4378 116.15 71.4697C116.123 71.5974 116.097 71.7305 116.076 71.8689C116.076 71.8902 116.076 71.9115 116.07 71.9328C116.054 72.0498 116.044 72.1669 116.033 72.284C116.033 72.3213 116.033 72.3585 116.028 72.3958C116.017 72.5342 116.012 72.6726 116.012 72.8163C116.012 73.3326 116.076 73.8488 116.198 74.3491C118.54 75.1688 120.472 76.8773 121.59 79.1021Z" fill="#00A255"></path><path d="M116.187 74.3333C116.826 76.888 118.971 78.7881 121.589 79.1075C120.477 76.8721 118.54 75.1636 116.187 74.3333Z" fill="#00834B"></path><path d="M124.958 27.7726C125.102 27.7779 125.246 27.7832 125.384 27.7726C125.304 27.7779 125.23 27.7779 125.15 27.7779H125.134C125.081 27.7779 125.022 27.7779 124.958 27.7726Z" fill="#008C6A"></path><path d="M124.772 27.7672C124.837 27.7726 124.901 27.7726 124.965 27.7726C124.901 27.7726 124.837 27.7726 124.772 27.7672Z" fill="#008C6A"></path><path d="M124.283 27.7086C124.442 27.7352 124.607 27.7512 124.772 27.7618C124.607 27.7565 124.442 27.7406 124.283 27.7086Z" fill="#008C6A"></path><path d="M128.775 26.3781C128.753 26.4047 128.737 26.4206 128.716 26.4366C128.62 26.5218 128.524 26.6016 128.423 26.6708C128.546 26.5803 128.663 26.4792 128.775 26.3781Z" fill="#008C6A"></path><path d="M131.628 32.0038C131.628 32.254 131.612 32.5041 131.585 32.749C131.574 32.8714 131.553 32.9991 131.537 33.1215C131.537 33.1375 131.532 33.1481 131.532 33.1641C131.489 33.4036 131.436 33.6325 131.372 33.8667C131 35.2079 130.222 36.4427 129.083 37.3848L129.067 37.3954C128.918 37.5179 128.769 37.635 128.604 37.7414C125.741 39.7213 121.856 39.2849 119.492 36.7195C119.349 36.5598 119.2 36.3948 119.072 36.2192L119.035 36.1713C118.343 35.2452 117.906 34.186 117.731 33.0896C117.646 32.552 117.624 32.0038 117.667 31.4609C117.672 31.3704 117.683 31.28 117.693 31.1895C117.704 31.0617 117.725 30.9393 117.747 30.8116C117.795 30.5508 117.853 30.2847 117.928 30.0292C118.007 29.7631 118.103 29.5023 118.21 29.2415C118.263 29.1244 118.321 29.002 118.38 28.8849C118.987 27.6607 119.945 26.6441 121.121 25.9575L121.126 25.9628C121.382 26.2556 121.664 26.5111 121.962 26.7293C122.042 26.7878 122.116 26.841 122.196 26.8889C122.43 27.0486 122.681 27.187 122.936 27.2988C123.021 27.3414 123.106 27.3786 123.197 27.4105C123.255 27.4372 123.314 27.4584 123.378 27.4797C123.495 27.517 123.612 27.5543 123.729 27.5862C123.814 27.6128 123.899 27.6341 123.985 27.6501C124.08 27.6713 124.181 27.6926 124.283 27.7086C124.645 27.7671 125.017 27.7938 125.39 27.7725C125.4 27.7778 125.411 27.7725 125.427 27.7725C125.501 27.7725 125.581 27.7671 125.656 27.7565C125.741 27.7512 125.821 27.7405 125.906 27.7246C126.071 27.7086 126.231 27.6767 126.39 27.6341C126.55 27.6022 126.71 27.5596 126.864 27.501C126.944 27.4797 127.018 27.4478 127.098 27.4159C127.252 27.3626 127.402 27.2935 127.551 27.2136C127.7 27.1444 127.843 27.0646 127.987 26.9741C128.125 26.8889 128.258 26.7985 128.392 26.6973C128.402 26.692 128.413 26.6867 128.423 26.6707C128.525 26.6015 128.62 26.5217 128.716 26.4365C128.737 26.4206 128.753 26.4046 128.775 26.378L128.78 26.3727C129.642 27.0114 130.345 27.831 130.84 28.7837C131.228 29.5289 131.479 30.3379 131.58 31.1682C131.612 31.445 131.628 31.7217 131.628 32.0038Z" fill="#43B049"></path><path d="M131.372 33.8667C130.999 35.2399 130.206 36.4747 129.083 37.4008L129.062 37.4167C128.913 37.5338 128.759 37.6509 128.604 37.7574C127.396 38.5877 126.012 38.9975 124.634 38.9975C122.739 38.9975 120.86 38.2258 119.492 36.7408C119.343 36.5811 119.205 36.4108 119.072 36.2352L119.029 36.1873C118.337 35.2612 117.901 34.1967 117.73 33.0896C117.906 34.186 118.343 35.2452 119.034 36.1713L119.072 36.2192C119.199 36.3948 119.349 36.5598 119.492 36.7195C121.855 39.2849 125.741 39.7214 128.604 37.7414C128.769 37.635 128.918 37.5179 129.067 37.3955L129.083 37.3848C130.222 36.4427 130.999 35.2079 131.372 33.8667Z" fill="#008A4D"></path><path d="M131.372 33.8667C131.436 33.6326 131.489 33.4037 131.532 33.1642C131.489 33.4037 131.441 33.6379 131.372 33.8667Z" fill="#008A4D"></path><path d="M119.774 22.4074C119.774 23.7168 120.248 24.9835 121.121 25.9628C123.527 24.563 126.539 24.7227 128.78 26.378C130.893 24.4459 131.127 21.1939 129.302 18.9851C129.248 18.9212 129.19 18.8521 129.131 18.7882C128.546 18.1442 127.817 17.6545 127.002 17.3511C126.837 17.2926 126.667 17.2394 126.497 17.1915C123.617 16.4516 120.685 18.1814 119.945 21.0609C119.833 21.5026 119.774 21.955 119.774 22.4074Z" fill="#43B049"></path><path d="M128.775 26.378C128.754 26.4046 128.738 26.4206 128.716 26.4365C128.62 26.5217 128.525 26.6015 128.424 26.6707C128.413 26.6867 128.402 26.692 128.392 26.6973C128.259 26.7931 128.125 26.8889 127.987 26.9741C127.843 27.0592 127.7 27.1391 127.551 27.2136C127.402 27.2881 127.253 27.3573 127.098 27.4159C127.024 27.4478 126.944 27.4744 126.864 27.501C126.71 27.5489 126.55 27.5968 126.39 27.6341C126.231 27.6713 126.066 27.7033 125.906 27.7246C125.821 27.7405 125.741 27.7512 125.656 27.7565C125.581 27.7618 125.501 27.7671 125.427 27.7725C125.411 27.7725 125.4 27.7778 125.39 27.7725C125.31 27.7778 125.235 27.7778 125.156 27.7778H125.14C125.081 27.7778 125.022 27.7725 124.964 27.7725C124.9 27.7725 124.836 27.7671 124.772 27.7671C124.607 27.7565 124.448 27.7405 124.283 27.7139C124.182 27.6979 124.08 27.6767 123.985 27.6554C123.899 27.6394 123.814 27.6181 123.729 27.5915C123.612 27.5596 123.495 27.5223 123.378 27.485C123.319 27.4638 123.255 27.4371 123.197 27.4159C123.106 27.3839 123.021 27.3467 122.936 27.3041C122.681 27.1923 122.43 27.0539 122.196 26.8943C122.116 26.8463 122.037 26.7931 121.962 26.7346C121.664 26.5164 121.382 26.2609 121.126 25.9681C121.393 25.8138 121.664 25.6754 121.941 25.5583C121.951 25.5583 121.957 25.553 121.962 25.5477C122.239 25.4359 122.516 25.3401 122.803 25.2603C122.931 25.2283 123.059 25.1964 123.192 25.1698C123.341 25.1378 123.49 25.1112 123.633 25.0899C123.804 25.0633 123.979 25.0474 124.144 25.0367C124.309 25.0261 124.474 25.0208 124.634 25.0208C124.826 25.0208 125.023 25.0261 125.214 25.042C125.305 25.0527 125.395 25.058 125.491 25.0687C125.672 25.0953 125.853 25.1219 126.034 25.1591C126.124 25.1751 126.215 25.1964 126.3 25.2177C126.481 25.2603 126.656 25.3135 126.832 25.372C126.917 25.3986 127.002 25.4306 127.088 25.4625C127.519 25.6222 127.929 25.8244 128.322 26.0693C128.477 26.1598 128.626 26.2662 128.775 26.378Z" fill="#1C9B48"></path><path d="M141.868 33.7017C142.113 33.8773 142.352 34.0583 142.592 34.2445C142.629 34.2765 142.672 34.3084 142.709 34.335C143.656 35.0802 144.556 35.8785 145.402 36.7354C146.621 35.82 148.106 35.325 149.628 35.3303C149.99 35.3303 150.347 35.3569 150.703 35.4102C151.699 35.5645 152.651 35.9264 153.492 36.48C153.588 36.1659 153.663 35.8466 153.711 35.5219C153.764 35.1813 153.785 34.8407 153.785 34.5C153.785 33.9412 153.716 33.3823 153.578 32.8447V32.8234C153.567 32.7702 153.551 32.7223 153.535 32.6744C153.519 32.6265 153.503 32.5626 153.487 32.5094C152.38 28.97 148.612 27.0007 145.067 28.1078C142.97 28.7677 141.325 30.4124 140.665 32.5094C140.649 32.5626 140.633 32.6212 140.617 32.6744C140.601 32.7276 140.591 32.7649 140.58 32.8128C141.017 33.0949 141.442 33.3929 141.868 33.7017Z" fill="#94CE94"></path><path d="M143.039 39.8651L143.05 39.8438C143.082 39.7533 143.119 39.6681 143.156 39.5777C143.172 39.5351 143.193 39.4978 143.209 39.4552C143.241 39.3807 143.278 39.3062 143.316 39.2317L143.38 39.1093C143.417 39.0348 143.459 38.9603 143.497 38.8911L143.561 38.774C143.608 38.6941 143.656 38.6196 143.71 38.5398L143.763 38.4546C143.832 38.3535 143.912 38.2471 143.981 38.1459L144.013 38.1087C144.077 38.0235 144.146 37.9384 144.215 37.8532C144.242 37.8213 144.268 37.7893 144.295 37.7627C144.348 37.6988 144.407 37.635 144.465 37.5711C144.497 37.5392 144.529 37.5072 144.556 37.4753C144.614 37.4168 144.673 37.3582 144.726 37.305C144.758 37.273 144.79 37.2411 144.822 37.2145C144.886 37.156 144.95 37.0974 145.014 37.0442L145.099 36.9697C145.189 36.8952 145.285 36.8206 145.381 36.7461C145.386 36.7408 145.386 36.7408 145.391 36.7408C144.545 35.8839 143.646 35.0855 142.698 34.3404L142.581 34.2499C142.342 34.0636 142.102 33.8827 141.857 33.707C141.432 33.3983 141 33.1003 140.559 32.8235C140.559 32.8288 140.559 32.8341 140.559 32.8341C140.548 32.8714 140.543 32.9086 140.532 32.9459C140.516 33.0204 140.5 33.0949 140.484 33.1641C140.468 33.2333 140.463 33.2972 140.452 33.3611C140.442 33.4249 140.436 33.4515 140.431 33.4941C140.378 33.8348 140.356 34.1754 140.356 34.516C140.362 36.6131 141.352 38.5983 143.039 39.8651Z" fill="#5EBB4C"></path><path d="M148.872 40.9668C148.994 41.1531 149.117 41.334 149.239 41.5257L149.266 41.5736C149.404 41.7865 149.532 41.9993 149.66 42.2122L149.782 42.4198C149.883 42.5848 149.979 42.7551 150.08 42.9255C150.123 43 150.165 43.0745 150.208 43.149C150.309 43.33 150.405 43.5162 150.501 43.6972C150.533 43.7558 150.559 43.809 150.591 43.8675C150.714 44.107 150.836 44.3519 150.953 44.5967L151.017 44.7351C151.113 44.932 151.203 45.1343 151.294 45.3365C151.331 45.4164 151.363 45.4962 151.4 45.576C151.475 45.7517 151.549 45.9273 151.624 46.103C151.656 46.1828 151.693 46.2679 151.725 46.3478C151.805 46.5447 151.885 46.7523 151.959 46.9492L152.023 47.1089C152.124 47.3644 152.209 47.6198 152.294 47.8806C152.316 47.9445 152.337 48.0137 152.358 48.0776C152.422 48.2745 152.486 48.4661 152.545 48.6684C152.555 48.7056 152.571 48.7429 152.582 48.7855C156.121 47.1621 157.67 42.9734 156.041 39.4339C155.488 38.2311 154.604 37.2038 153.497 36.48C152.811 38.6675 151.07 40.3547 148.872 40.9668Z" fill="#39B54A"></path><path d="M145.402 36.7354L145.514 36.8525C145.652 36.9909 145.785 37.1346 145.923 37.2783L146.104 37.4752C146.232 37.6136 146.365 37.7573 146.488 37.901L146.647 38.082C146.823 38.2842 146.999 38.4865 147.164 38.6888C147.334 38.8963 147.504 39.1092 147.669 39.3221L147.808 39.4978C147.925 39.6521 148.047 39.8118 148.164 39.9715L148.313 40.179C148.43 40.344 148.547 40.509 148.659 40.674L148.782 40.8497L148.861 40.9721C151.065 40.36 152.8 38.6675 153.476 36.4853C152.635 35.9317 151.688 35.5645 150.692 35.4155C150.336 35.3622 149.979 35.3356 149.617 35.3356C148.1 35.3303 146.621 35.82 145.402 36.7354Z" fill="#008C6A"></path><path d="M149.628 49.4295H149.639C149.761 49.4295 149.884 49.4295 150.006 49.4189C150.049 49.4189 150.091 49.4189 150.134 49.4082C150.214 49.4082 150.299 49.3976 150.379 49.387C150.427 49.387 150.48 49.3763 150.528 49.3657L150.746 49.3337C150.799 49.3284 150.847 49.3124 150.895 49.3071L151.102 49.2699L151.257 49.2326C151.321 49.2166 151.39 49.2007 151.454 49.1847L151.603 49.1421L151.794 49.0836C151.842 49.0676 151.896 49.0516 151.943 49.0304L152.135 48.9612L152.284 48.9026L152.47 48.8228L152.561 48.7855C152.55 48.7483 152.54 48.711 152.524 48.6684C152.465 48.4715 152.401 48.2799 152.337 48.0776C152.316 48.0084 152.295 47.9393 152.273 47.8754C152.188 47.6146 152.098 47.3591 152.002 47.109L151.938 46.944C151.864 46.7417 151.789 46.5448 151.704 46.3425C151.672 46.2574 151.635 46.1775 151.603 46.0924C151.528 45.9167 151.454 45.7411 151.379 45.5708C151.347 45.4909 151.31 45.4058 151.273 45.3259C151.182 45.1237 151.092 44.9268 150.996 44.7298C150.975 44.6819 150.954 44.6393 150.932 44.5914C150.815 44.3466 150.693 44.1071 150.57 43.8623C150.538 43.8037 150.506 43.7452 150.48 43.6919C150.384 43.511 150.288 43.3247 150.182 43.1437L150.054 42.9149C149.958 42.7446 149.862 42.5796 149.761 42.4146C149.719 42.3454 149.681 42.2762 149.639 42.207C149.511 41.9941 149.378 41.7812 149.245 41.5736C149.234 41.5576 149.224 41.5417 149.213 41.5257C149.096 41.3394 148.968 41.1531 148.846 40.9669C146.839 41.5257 144.684 41.1212 143.018 39.8651C143.012 39.8864 142.996 39.9077 142.991 39.9343C142.949 40.0514 142.906 40.1738 142.869 40.2962C142.863 40.3228 142.853 40.3441 142.847 40.3707C142.821 40.4665 142.789 40.5677 142.768 40.6635C142.757 40.7061 142.746 40.7486 142.736 40.7912C142.714 40.8711 142.698 40.9562 142.682 41.0414C142.672 41.0893 142.666 41.1372 142.656 41.1904C142.64 41.2702 142.629 41.3554 142.619 41.4352L142.597 41.5843C142.587 41.6747 142.581 41.7599 142.576 41.8504C142.576 41.893 142.571 41.9355 142.565 41.9781C142.56 42.1112 142.555 42.2442 142.555 42.3773C142.555 46.2733 145.716 49.4295 149.607 49.4295H149.628Z" fill="#00AE4D"></path><path d="M148.319 40.1791C148.271 40.1099 148.218 40.0407 148.17 39.9715C148.053 39.8118 147.936 39.6575 147.813 39.4978L147.675 39.3169C147.51 39.104 147.34 38.8911 147.169 38.6835C146.999 38.4759 146.829 38.279 146.653 38.0821L146.493 37.9011C146.366 37.7521 146.238 37.619 146.11 37.4753C146.046 37.4114 145.988 37.3422 145.929 37.2784C145.796 37.1293 145.658 36.9963 145.519 36.8526L145.402 36.7355L145.392 36.7461C145.296 36.8153 145.205 36.8951 145.115 36.9643L145.024 37.0389C144.96 37.0974 144.891 37.1506 144.833 37.2092L144.737 37.2997C144.678 37.3582 144.62 37.4114 144.567 37.47L144.471 37.5711C144.412 37.635 144.359 37.6935 144.301 37.7627L144.221 37.8532C144.151 37.933 144.082 38.0182 144.024 38.1033C144.013 38.1193 144.002 38.13 143.992 38.1459C143.917 38.2417 143.843 38.3482 143.774 38.4546L143.72 38.5398C143.672 38.6143 143.625 38.6888 143.571 38.774L143.502 38.8911C143.46 38.9603 143.422 39.0401 143.385 39.104C143.364 39.1465 143.342 39.1891 143.321 39.2317C143.284 39.3062 143.252 39.3807 143.215 39.4552C143.193 39.4978 143.177 39.5351 143.162 39.5777C143.124 39.6628 143.092 39.748 143.055 39.8385C143.055 39.8491 143.05 39.8544 143.044 39.8651C144.71 41.1158 146.866 41.5257 148.872 40.9668L148.793 40.8444L148.67 40.6688C148.553 40.5091 148.431 40.3441 148.319 40.1791Z" fill="#008A4D"></path><path d="M147.095 67.084C149.593 67.084 151.619 65.0585 151.619 62.56C151.619 60.0614 149.593 58.0359 147.095 58.0359C144.596 58.0359 142.571 60.0614 142.571 62.56C142.571 65.0585 144.596 67.084 147.095 67.084Z" fill="#00A255"></path><path d="M157.191 54.4698C156.089 54.4698 155.195 55.364 155.195 56.4658C155.195 57.5675 156.089 58.4617 157.191 58.4617C158.293 58.4617 159.187 57.5675 159.187 56.4658C159.187 55.364 158.293 54.4698 157.191 54.4698Z" fill="#94CE95"></path><path d="M138.898 26.8305C141.047 26.8305 142.789 25.0886 142.789 22.9398C142.789 20.791 141.047 19.0491 138.898 19.0491C136.749 19.0491 135.007 20.791 135.007 22.9398C135.007 25.0886 136.749 26.8305 138.898 26.8305Z" fill="#54B948"></path><path d="M168.922 40.3334C170.638 40.3334 172.03 38.9418 172.03 37.2251C172.03 35.5085 170.638 34.1168 168.922 34.1168C167.205 34.1168 165.813 35.5085 165.813 37.2251C165.813 38.9418 167.205 40.3334 168.922 40.3334Z" fill="#00ADD2"></path><path d="M161.907 29.7791C161.135 29.7791 160.507 30.4071 160.507 31.1789C160.507 31.9506 161.135 32.5787 161.907 32.5787C162.679 32.5787 163.307 31.9506 163.307 31.1789C163.307 30.4071 162.679 29.7791 161.907 29.7791Z" fill="#54B948"></path><path d="M156.925 20.4382C156.925 19.6771 157.037 18.916 157.266 18.1868C157.314 18.0378 157.367 17.8941 157.415 17.7451C157.463 17.596 157.526 17.4576 157.59 17.3193C157.612 17.2714 157.633 17.2181 157.66 17.1702C154.977 16.1803 151.997 17.5534 151.007 20.236C150.017 22.9185 151.39 25.899 154.072 26.889C155.855 27.549 157.857 27.1764 159.283 25.9203C157.777 24.4992 156.925 22.514 156.925 20.4382Z" fill="#48A749"></path><path d="M161.061 22.0349C161.061 23.5252 160.417 24.9463 159.294 25.9256C162.328 28.7944 167.112 28.6613 169.981 25.6275C172.85 22.5937 172.717 17.8089 169.683 14.9401C166.649 12.0713 161.864 12.2043 158.996 15.2381C158.628 15.6267 158.304 16.0578 158.022 16.5155L158.006 16.5421C157.883 16.7497 157.766 16.9573 157.665 17.1702C159.704 17.9206 161.061 19.8633 161.061 22.0349Z" fill="#94CE95"></path><path d="M161.061 22.0349C161.061 19.8633 159.704 17.9206 157.665 17.1702C157.644 17.2181 157.617 17.2713 157.596 17.3192C157.532 17.4576 157.474 17.6013 157.42 17.745C157.367 17.8887 157.309 18.0377 157.271 18.1868C156.414 20.9438 157.202 23.9456 159.294 25.9256C160.417 24.9463 161.061 23.5252 161.061 22.0349Z" fill="#0F6936"></path><path d="M143.295 11.5178C146.475 11.5178 149.053 8.93942 149.053 5.75888C149.053 2.57834 146.475 0 143.295 0C140.114 0 137.536 2.57834 137.536 5.75888C137.536 8.93942 140.114 11.5178 143.295 11.5178Z" fill="#00ADD2"></path><path d="M135.06 15.6959C136.045 15.6959 136.843 14.8976 136.849 13.9129C136.849 12.9282 136.05 12.1299 135.066 12.1299C134.081 12.1299 133.283 12.9282 133.283 13.9129C133.277 14.8976 134.076 15.6959 135.06 15.6959Z" fill="#94CE95"></path><path d="M152.481 12.1138C153.913 12.1138 155.067 10.9536 155.067 9.52714C155.067 8.10072 153.907 6.94043 152.481 6.94043C151.049 6.94043 149.894 8.10072 149.894 9.52714C149.889 10.9536 151.049 12.1138 152.481 12.1138Z" fill="#008B68"></path><path d="M159.283 4.26333C160.141 4.26333 160.837 3.56752 160.837 2.70918C160.837 1.85085 160.141 1.15503 159.283 1.15503C158.424 1.15503 157.729 1.85085 157.729 2.70918C157.729 3.56752 158.424 4.26333 159.283 4.26333Z" fill="#A1CD3A"></path><path d="M177.757 19.5228C179.386 19.5228 180.706 18.2026 180.706 16.5741C180.706 14.9456 179.386 13.6255 177.757 13.6255C176.129 13.6255 174.809 14.9456 174.809 16.5741C174.809 18.2026 176.129 19.5228 177.757 19.5228Z" fill="#54B948"></path></svg>